<svg xmlns="http://www.w3.org/2000/svg" width="2048" height="1024" viewBox="0 0 2048 1024"><rect width="2048" height="1024" fill="#f7f7f4"/><text x="48" y="70" font-family="Segoe UI,Arial,sans-serif" font-size="40" font-weight="700" fill="#111111">UniMind / Three directions + one personal take</text><text x="48" y="108" font-family="Segoe UI,Arial,sans-serif" font-size="21" font-weight="400" fill="#666666">Concept checkpoint / A–C within the accepted identity / D explores my own taste</text><rect x="48" y="150" width="476" height="810" rx="18" fill="#ffffff" stroke="#d9d9d5"/><svg xmlns="http://www.w3.org/2000/svg" viewBox="0 0 256 256" x="138" y="204" width="296" height="296" preserveAspectRatio="xMidYMid meet"><title>a-sourcefold — unapproved UniMind concept</title><path fill="#111111" d="M40 40H80V128C80 158 98 176 128 176S176 158 176 128V80L216 40V128C216 182 182 216 128 216S40 182 40 128Z"/></svg>
<svg xmlns="http://www.w3.org/2000/svg" viewBox="0 0 940 256" x="72" y="532" width="428" height="117" preserveAspectRatio="xMidYMid meet"><title>a-sourcefold — unapproved UniMind concept</title><path fill="#111111" d="M40 40H80V128C80 158 98 176 128 176S176 158 176 128V80L216 40V128C216 182 182 216 128 216S40 182 40 128Z"/><g transform="translate(284 67) scale(1.4)"><path transform="translate(0 0)" fill="#111111" fill-rule="evenodd" d="M0 0H12V48C12 64 20 72 34 72S56 64 56 48V0H68V48C68 72 55 84 34 84S0 72 0 48Z"/><path transform="translate(84 0)" fill="#111111" fill-rule="evenodd" d="M0 24H12V30C18 24 25 22 32 22C49 22 58 32 58 50V82H46V50C46 38 41 33 31 33S12 39 12 52V82H0Z"/><path transform="translate(160 0)" fill="#111111" fill-rule="evenodd" d="M0 0H12V12H0Z M0 24H12V82H0Z"/><path transform="translate(192 0)" fill="#111111" fill-rule="evenodd" d="M0 0H14L40 45.033L66 0H80V82H68V14L40 62.497L12 14V82H0Z"/><path transform="translate(290 0)" fill="#111111" fill-rule="evenodd" d="M0 0H12V12H0Z M0 24H12V82H0Z"/><path transform="translate(320 0)" fill="#111111" fill-rule="evenodd" d="M0 24H12V30C18 24 25 22 32 22C49 22 58 32 58 50V82H46V50C46 38 41 33 31 33S12 39 12 52V82H0Z"/><path transform="translate(396 0)" fill="#111111" fill-rule="evenodd" d="M46 0H58V82H46V76C40 82 33 84 26 84C10 84 0 72 0 53S10 22 26 22C34 22 40 25 46 30Z M12 53C12 66 18 73 28 73S46 66 46 53S39 33 28 33S12 40 12 53Z"/></g></svg>
<svg xmlns="http://www.w3.org/2000/svg" viewBox="0 0 256 256" x="80" y="680" width="64" height="64" preserveAspectRatio="xMidYMid meet"><title>a-sourcefold — unapproved UniMind concept</title><path fill="#111111" d="M40 40H80V128C80 158 98 176 128 176S176 158 176 128V80L216 40V128C216 182 182 216 128 216S40 182 40 128Z"/></svg>
<text x="80" y="765" font-family="Segoe UI,Arial,sans-serif" font-size="13" font-weight="400" fill="#666666">64px</text><svg xmlns="http://www.w3.org/2000/svg" viewBox="0 0 256 256" x="176" y="712" width="32" height="32" preserveAspectRatio="xMidYMid meet"><title>a-sourcefold — unapproved UniMind concept</title><path fill="#111111" d="M40 40H80V128C80 158 98 176 128 176S176 158 176 128V80L216 40V128C216 182 182 216 128 216S40 182 40 128Z"/></svg>
<text x="176" y="765" font-family="Segoe UI,Arial,sans-serif" font-size="13" font-weight="400" fill="#666666">32px</text><svg xmlns="http://www.w3.org/2000/svg" viewBox="0 0 256 256" x="240" y="728" width="16" height="16" preserveAspectRatio="xMidYMid meet"><title>a-sourcefold — unapproved UniMind concept</title><path fill="#111111" d="M40 40H80V128C80 158 98 176 128 176S176 158 176 128V80L216 40V128C216 182 182 216 128 216S40 182 40 128Z"/></svg>
<text x="240" y="765" font-family="Segoe UI,Arial,sans-serif" font-size="13" font-weight="400" fill="#666666">16px</text><text x="80" y="815" font-family="Segoe UI,Arial,sans-serif" font-size="28" font-weight="700" fill="#111111">A / Sourcefold</text><text x="80" y="857" font-family="Segoe UI,Arial,sans-serif" font-size="20" font-weight="400" fill="#555555">A folded U: source material becomes</text><text x="80" y="883" font-family="Segoe UI,Arial,sans-serif" font-size="20" font-weight="400" fill="#555555">understanding.</text><text x="80" y="935" font-family="Segoe UI,Arial,sans-serif" font-size="14" font-weight="400" fill="#666666">Project direction / Letterform</text><rect x="540" y="150" width="476" height="810" rx="18" fill="#ffffff" stroke="#d9d9d5"/><svg xmlns="http://www.w3.org/2000/svg" viewBox="0 0 256 256" x="630" y="204" width="296" height="296" preserveAspectRatio="xMidYMid meet"><title>b-focus-shelf — unapproved UniMind concept</title><path fill="#111111" d="M40 40H216V72H40Z M40 112H128V144H40Z M40 184H128V216H40Z M160 112H216V216H160Z"/></svg>
<svg xmlns="http://www.w3.org/2000/svg" viewBox="0 0 940 256" x="564" y="532" width="428" height="117" preserveAspectRatio="xMidYMid meet"><title>b-focus-shelf — unapproved UniMind concept</title><path fill="#111111" d="M40 40H216V72H40Z M40 112H128V144H40Z M40 184H128V216H40Z M160 112H216V216H160Z"/><g transform="translate(284 67) scale(1.4)"><path transform="translate(0 0)" fill="#111111" fill-rule="evenodd" d="M0 0H12V48C12 64 20 72 34 72S56 64 56 48V0H68V48C68 72 55 84 34 84S0 72 0 48Z"/><path transform="translate(84 0)" fill="#111111" fill-rule="evenodd" d="M0 24H12V30C18 24 25 22 32 22C49 22 58 32 58 50V82H46V50C46 38 41 33 31 33S12 39 12 52V82H0Z"/><path transform="translate(160 0)" fill="#111111" fill-rule="evenodd" d="M0 0H12V12H0Z M0 24H12V82H0Z"/><path transform="translate(192 0)" fill="#111111" fill-rule="evenodd" d="M0 0H14L40 45.033L66 0H80V82H68V14L40 62.497L12 14V82H0Z"/><path transform="translate(290 0)" fill="#111111" fill-rule="evenodd" d="M0 0H12V12H0Z M0 24H12V82H0Z"/><path transform="translate(320 0)" fill="#111111" fill-rule="evenodd" d="M0 24H12V30C18 24 25 22 32 22C49 22 58 32 58 50V82H46V50C46 38 41 33 31 33S12 39 12 52V82H0Z"/><path transform="translate(396 0)" fill="#111111" fill-rule="evenodd" d="M46 0H58V82H46V76C40 82 33 84 26 84C10 84 0 72 0 53S10 22 26 22C34 22 40 25 46 30Z M12 53C12 66 18 73 28 73S46 66 46 53S39 33 28 33S12 40 12 53Z"/></g></svg>
<svg xmlns="http://www.w3.org/2000/svg" viewBox="0 0 256 256" x="572" y="680" width="64" height="64" preserveAspectRatio="xMidYMid meet"><title>b-focus-shelf — unapproved UniMind concept</title><path fill="#111111" d="M40 40H216V72H40Z M40 112H128V144H40Z M40 184H128V216H40Z M160 112H216V216H160Z"/></svg>
<text x="572" y="765" font-family="Segoe UI,Arial,sans-serif" font-size="13" font-weight="400" fill="#666666">64px</text><svg xmlns="http://www.w3.org/2000/svg" viewBox="0 0 256 256" x="668" y="712" width="32" height="32" preserveAspectRatio="xMidYMid meet"><title>b-focus-shelf — unapproved UniMind concept</title><path fill="#111111" d="M40 40H216V72H40Z M40 112H128V144H40Z M40 184H128V216H40Z M160 112H216V216H160Z"/></svg>
<text x="668" y="765" font-family="Segoe UI,Arial,sans-serif" font-size="13" font-weight="400" fill="#666666">32px</text><svg xmlns="http://www.w3.org/2000/svg" viewBox="0 0 256 256" x="732" y="728" width="16" height="16" preserveAspectRatio="xMidYMid meet"><title>b-focus-shelf — unapproved UniMind concept</title><path fill="#111111" d="M40 40H216V72H40Z M40 112H128V144H40Z M40 184H128V216H40Z M160 112H216V216H160Z"/></svg>
<text x="732" y="765" font-family="Segoe UI,Arial,sans-serif" font-size="13" font-weight="400" fill="#666666">16px</text><text x="572" y="815" font-family="Segoe UI,Arial,sans-serif" font-size="28" font-weight="700" fill="#111111">B / Focus Shelf</text><text x="572" y="857" font-family="Segoe UI,Arial,sans-serif" font-size="20" font-weight="400" fill="#555555">One expanded study plate among ordered</text><text x="572" y="883" font-family="Segoe UI,Arial,sans-serif" font-size="20" font-weight="400" fill="#555555">shelves.</text><text x="572" y="935" font-family="Segoe UI,Arial,sans-serif" font-size="14" font-weight="400" fill="#666666">Project direction / Abstract</text><rect x="1032" y="150" width="476" height="810" rx="18" fill="#ffffff" stroke="#d9d9d5"/><svg xmlns="http://www.w3.org/2000/svg" viewBox="0 0 256 256" x="1122" y="204" width="296" height="296" preserveAspectRatio="xMidYMid meet"><title>c-common-ground — unapproved UniMind concept</title><path fill="#111111" d="M112 32V72C84 80 68 100 68 128S84 176 112 184V224C58 216 24 180 24 128S58 40 112 32Z M144 32C198 40 232 76 232 128S198 216 144 224V184C172 176 188 156 188 128S172 80 144 72Z M104 104H152V152H104Z"/></svg>
<svg xmlns="http://www.w3.org/2000/svg" viewBox="0 0 940 256" x="1056" y="532" width="428" height="117" preserveAspectRatio="xMidYMid meet"><title>c-common-ground — unapproved UniMind concept</title><path fill="#111111" d="M112 32V72C84 80 68 100 68 128S84 176 112 184V224C58 216 24 180 24 128S58 40 112 32Z M144 32C198 40 232 76 232 128S198 216 144 224V184C172 176 188 156 188 128S172 80 144 72Z M104 104H152V152H104Z"/><g transform="translate(284 67) scale(1.4)"><path transform="translate(0 0)" fill="#111111" fill-rule="evenodd" d="M0 0H12V48C12 64 20 72 34 72S56 64 56 48V0H68V48C68 72 55 84 34 84S0 72 0 48Z"/><path transform="translate(84 0)" fill="#111111" fill-rule="evenodd" d="M0 24H12V30C18 24 25 22 32 22C49 22 58 32 58 50V82H46V50C46 38 41 33 31 33S12 39 12 52V82H0Z"/><path transform="translate(160 0)" fill="#111111" fill-rule="evenodd" d="M0 0H12V12H0Z M0 24H12V82H0Z"/><path transform="translate(192 0)" fill="#111111" fill-rule="evenodd" d="M0 0H14L40 45.033L66 0H80V82H68V14L40 62.497L12 14V82H0Z"/><path transform="translate(290 0)" fill="#111111" fill-rule="evenodd" d="M0 0H12V12H0Z M0 24H12V82H0Z"/><path transform="translate(320 0)" fill="#111111" fill-rule="evenodd" d="M0 24H12V30C18 24 25 22 32 22C49 22 58 32 58 50V82H46V50C46 38 41 33 31 33S12 39 12 52V82H0Z"/><path transform="translate(396 0)" fill="#111111" fill-rule="evenodd" d="M46 0H58V82H46V76C40 82 33 84 26 84C10 84 0 72 0 53S10 22 26 22C34 22 40 25 46 30Z M12 53C12 66 18 73 28 73S46 66 46 53S39 33 28 33S12 40 12 53Z"/></g></svg>
<svg xmlns="http://www.w3.org/2000/svg" viewBox="0 0 256 256" x="1064" y="680" width="64" height="64" preserveAspectRatio="xMidYMid meet"><title>c-common-ground — unapproved UniMind concept</title><path fill="#111111" d="M112 32V72C84 80 68 100 68 128S84 176 112 184V224C58 216 24 180 24 128S58 40 112 32Z M144 32C198 40 232 76 232 128S198 216 144 224V184C172 176 188 156 188 128S172 80 144 72Z M104 104H152V152H104Z"/></svg>
<text x="1064" y="765" font-family="Segoe UI,Arial,sans-serif" font-size="13" font-weight="400" fill="#666666">64px</text><svg xmlns="http://www.w3.org/2000/svg" viewBox="0 0 256 256" x="1160" y="712" width="32" height="32" preserveAspectRatio="xMidYMid meet"><title>c-common-ground — unapproved UniMind concept</title><path fill="#111111" d="M112 32V72C84 80 68 100 68 128S84 176 112 184V224C58 216 24 180 24 128S58 40 112 32Z M144 32C198 40 232 76 232 128S198 216 144 224V184C172 176 188 156 188 128S172 80 144 72Z M104 104H152V152H104Z"/></svg>
<text x="1160" y="765" font-family="Segoe UI,Arial,sans-serif" font-size="13" font-weight="400" fill="#666666">32px</text><svg xmlns="http://www.w3.org/2000/svg" viewBox="0 0 256 256" x="1224" y="728" width="16" height="16" preserveAspectRatio="xMidYMid meet"><title>c-common-ground — unapproved UniMind concept</title><path fill="#111111" d="M112 32V72C84 80 68 100 68 128S84 176 112 184V224C58 216 24 180 24 128S58 40 112 32Z M144 32C198 40 232 76 232 128S198 216 144 224V184C172 176 188 156 188 128S172 80 144 72Z M104 104H152V152H104Z"/></svg>
<text x="1224" y="765" font-family="Segoe UI,Arial,sans-serif" font-size="13" font-weight="400" fill="#666666">16px</text><text x="1064" y="815" font-family="Segoe UI,Arial,sans-serif" font-size="28" font-weight="700" fill="#111111">C / Common Ground</text><text x="1064" y="857" font-family="Segoe UI,Arial,sans-serif" font-size="20" font-weight="400" fill="#555555">Two boundaries hold one shared</text><text x="1064" y="883" font-family="Segoe UI,Arial,sans-serif" font-size="20" font-weight="400" fill="#555555">knowledge pool.</text><text x="1064" y="935" font-family="Segoe UI,Arial,sans-serif" font-size="14" font-weight="400" fill="#666666">Project direction / Abstract</text><rect x="1524" y="150" width="476" height="810" rx="18" fill="#ffffff" stroke="#d9d9d5"/><svg xmlns="http://www.w3.org/2000/svg" viewBox="0 0 264 256" x="1614" y="204" width="296" height="296" preserveAspectRatio="xMidYMid meet"><title>Mindwave — unapproved UniMind concept</title><path fill="#111111" d="M24 216V104C24 60 48 32 84 32C106 32 122 42 132 60C144 42 160 32 180 32C216 32 240 60 240 104V160C240 196 218 216 180 216H168V180H180C194 180 204 172 204 156V104C204 82 194 72 180 72C162 72 152 86 152 112V176H112V112C112 86 104 72 84 72C70 72 64 82 64 104V216Z"/></svg>
<svg xmlns="http://www.w3.org/2000/svg" viewBox="0 0 940 256" x="1548" y="532" width="428" height="117" preserveAspectRatio="xMidYMid meet"><title>Mindwave — unapproved UniMind concept</title><path fill="#111111" d="M24 216V104C24 60 48 32 84 32C106 32 122 42 132 60C144 42 160 32 180 32C216 32 240 60 240 104V160C240 196 218 216 180 216H168V180H180C194 180 204 172 204 156V104C204 82 194 72 180 72C162 72 152 86 152 112V176H112V112C112 86 104 72 84 72C70 72 64 82 64 104V216Z"/><g transform="translate(284 67) scale(1.4)"><path transform="translate(0 0)" fill="#111111" fill-rule="evenodd" d="M0 0H12V48C12 64 20 72 34 72S56 64 56 48V0H68V48C68 72 55 84 34 84S0 72 0 48Z"/><path transform="translate(84 0)" fill="#111111" fill-rule="evenodd" d="M0 24H12V30C18 24 25 22 32 22C49 22 58 32 58 50V82H46V50C46 38 41 33 31 33S12 39 12 52V82H0Z"/><path transform="translate(160 0)" fill="#111111" fill-rule="evenodd" d="M0 0H12V12H0Z M0 24H12V82H0Z"/><path transform="translate(192 0)" fill="#111111" fill-rule="evenodd" d="M0 0H14L40 45.033L66 0H80V82H68V14L40 62.497L12 14V82H0Z"/><path transform="translate(290 0)" fill="#111111" fill-rule="evenodd" d="M0 0H12V12H0Z M0 24H12V82H0Z"/><path transform="translate(320 0)" fill="#111111" fill-rule="evenodd" d="M0 24H12V30C18 24 25 22 32 22C49 22 58 32 58 50V82H46V50C46 38 41 33 31 33S12 39 12 52V82H0Z"/><path transform="translate(396 0)" fill="#111111" fill-rule="evenodd" d="M46 0H58V82H46V76C40 82 33 84 26 84C10 84 0 72 0 53S10 22 26 22C34 22 40 25 46 30Z M12 53C12 66 18 73 28 73S46 66 46 53S39 33 28 33S12 40 12 53Z"/></g></svg>
<svg xmlns="http://www.w3.org/2000/svg" viewBox="0 0 264 256" x="1556" y="680" width="64" height="64" preserveAspectRatio="xMidYMid meet"><title>Mindwave — unapproved UniMind concept</title><path fill="#111111" d="M24 216V104C24 60 48 32 84 32C106 32 122 42 132 60C144 42 160 32 180 32C216 32 240 60 240 104V160C240 196 218 216 180 216H168V180H180C194 180 204 172 204 156V104C204 82 194 72 180 72C162 72 152 86 152 112V176H112V112C112 86 104 72 84 72C70 72 64 82 64 104V216Z"/></svg>
<text x="1556" y="765" font-family="Segoe UI,Arial,sans-serif" font-size="13" font-weight="400" fill="#666666">64px</text><svg xmlns="http://www.w3.org/2000/svg" viewBox="0 0 264 256" x="1652" y="712" width="32" height="32" preserveAspectRatio="xMidYMid meet"><title>Mindwave — unapproved UniMind concept</title><path fill="#111111" d="M24 216V104C24 60 48 32 84 32C106 32 122 42 132 60C144 42 160 32 180 32C216 32 240 60 240 104V160C240 196 218 216 180 216H168V180H180C194 180 204 172 204 156V104C204 82 194 72 180 72C162 72 152 86 152 112V176H112V112C112 86 104 72 84 72C70 72 64 82 64 104V216Z"/></svg>
<text x="1652" y="765" font-family="Segoe UI,Arial,sans-serif" font-size="13" font-weight="400" fill="#666666">32px</text><svg xmlns="http://www.w3.org/2000/svg" viewBox="0 0 264 256" x="1716" y="728" width="16" height="16" preserveAspectRatio="xMidYMid meet"><title>Mindwave — unapproved UniMind concept</title><path fill="#111111" d="M24 216V104C24 60 48 32 84 32C106 32 122 42 132 60C144 42 160 32 180 32C216 32 240 60 240 104V160C240 196 218 216 180 216H168V180H180C194 180 204 172 204 156V104C204 82 194 72 180 72C162 72 152 86 152 112V176H112V112C112 86 104 72 84 72C70 72 64 82 64 104V216Z"/></svg>
<text x="1716" y="765" font-family="Segoe UI,Arial,sans-serif" font-size="13" font-weight="400" fill="#666666">16px</text><text x="1556" y="815" font-family="Segoe UI,Arial,sans-serif" font-size="28" font-weight="700" fill="#111111">D / Mindwave</text><text x="1556" y="857" font-family="Segoe UI,Arial,sans-serif" font-size="20" font-weight="400" fill="#555555">A flowing m with a curled tail:</text><text x="1556" y="883" font-family="Segoe UI,Arial,sans-serif" font-size="20" font-weight="400" fill="#555555">curiosity keeps moving.</text><text x="1556" y="935" font-family="Segoe UI,Arial,sans-serif" font-size="14" font-weight="400" fill="#666666">Personal direction / Expressive letterform</text></svg>