<svg xmlns="http://www.w3.org/2000/svg" xmlns:xlink="http://www.w3.org/1999/xlink" width="1600" height="984" viewBox="0 0 1600 984"><defs><filter id="grey"><feColorMatrix type="saturate" values="0"/></filter></defs><rect width="1600" height="984" fill="#f7f7f4"/><text x="60" y="78" font-family="system-ui,-apple-system,'Segoe UI',Helvetica,Arial,sans-serif" font-size="40" font-weight="700" fill="#161616">UniMind / Three logo directions</text><text x="60" y="116" font-family="system-ui,-apple-system,'Segoe UI',Helvetica,Arial,sans-serif" font-size="20" fill="#6b6b6b">Concept review / Calm, grounded, academic / Black first</text><rect x="60" y="150" width="474.667" height="774" rx="18" fill="#fff" stroke="#161616" stroke-width="2"/><g filter="url(#grey)"><svg xmlns="http://www.w3.org/2000/svg" viewBox="0 0 256 256" x="90" y="190" width="414.667" height="300" preserveAspectRatio="xMidYMid meet"><title>a-sourcefold — unapproved UniMind concept</title><path fill="#111111" d="M40 40H80V128C80 158 98 176 128 176S176 158 176 128V80L216 40V128C216 182 182 216 128 216S40 182 40 128Z"/></svg>
</g><g filter="url(#grey)"><svg xmlns="http://www.w3.org/2000/svg" viewBox="0 0 940 256" x="90" y="514" width="414.667" height="120" preserveAspectRatio="xMidYMid meet"><title>a-sourcefold — unapproved UniMind concept</title><path fill="#111111" d="M40 40H80V128C80 158 98 176 128 176S176 158 176 128V80L216 40V128C216 182 182 216 128 216S40 182 40 128Z"/><g transform="translate(284 67) scale(1.4)"><path transform="translate(0 0)" fill="#111111" fill-rule="evenodd" d="M0 0H12V48C12 64 20 72 34 72S56 64 56 48V0H68V48C68 72 55 84 34 84S0 72 0 48Z"/><path transform="translate(84 0)" fill="#111111" fill-rule="evenodd" d="M0 24H12V30C18 24 25 22 32 22C49 22 58 32 58 50V82H46V50C46 38 41 33 31 33S12 39 12 52V82H0Z"/><path transform="translate(160 0)" fill="#111111" fill-rule="evenodd" d="M0 0H12V12H0Z M0 24H12V82H0Z"/><path transform="translate(192 0)" fill="#111111" fill-rule="evenodd" d="M0 0H14L40 45.033L66 0H80V82H68V14L40 62.497L12 14V82H0Z"/><path transform="translate(290 0)" fill="#111111" fill-rule="evenodd" d="M0 0H12V12H0Z M0 24H12V82H0Z"/><path transform="translate(320 0)" fill="#111111" fill-rule="evenodd" d="M0 24H12V30C18 24 25 22 32 22C49 22 58 32 58 50V82H46V50C46 38 41 33 31 33S12 39 12 52V82H0Z"/><path transform="translate(396 0)" fill="#111111" fill-rule="evenodd" d="M46 0H58V82H46V76C40 82 33 84 26 84C10 84 0 72 0 53S10 22 26 22C34 22 40 25 46 30Z M12 53C12 66 18 73 28 73S46 66 46 53S39 33 28 33S12 40 12 53Z"/></g></svg>
</g><g filter="url(#grey)"><svg xmlns="http://www.w3.org/2000/svg" viewBox="0 0 256 256" x="90" y="660" width="64" height="64" preserveAspectRatio="xMidYMid meet"><title>a-sourcefold — unapproved UniMind concept</title><path fill="#111111" d="M40 40H80V128C80 158 98 176 128 176S176 158 176 128V80L216 40V128C216 182 182 216 128 216S40 182 40 128Z"/></svg>
</g><text x="122" y="744" font-family="system-ui,-apple-system,'Segoe UI',Helvetica,Arial,sans-serif" font-size="12" fill="#8a8a8a" text-anchor="middle">64px</text><g filter="url(#grey)"><svg xmlns="http://www.w3.org/2000/svg" viewBox="0 0 256 256" x="180" y="692" width="32" height="32" preserveAspectRatio="xMidYMid meet"><title>a-sourcefold — unapproved UniMind concept</title><path fill="#111111" d="M40 40H80V128C80 158 98 176 128 176S176 158 176 128V80L216 40V128C216 182 182 216 128 216S40 182 40 128Z"/></svg>
</g><text x="196" y="744" font-family="system-ui,-apple-system,'Segoe UI',Helvetica,Arial,sans-serif" font-size="12" fill="#8a8a8a" text-anchor="middle">32px</text><g filter="url(#grey)"><svg xmlns="http://www.w3.org/2000/svg" viewBox="0 0 256 256" x="238" y="708" width="16" height="16" preserveAspectRatio="xMidYMid meet"><title>a-sourcefold — unapproved UniMind concept</title><path fill="#111111" d="M40 40H80V128C80 158 98 176 128 176S176 158 176 128V80L216 40V128C216 182 182 216 128 216S40 182 40 128Z"/></svg>
</g><text x="246" y="744" font-family="system-ui,-apple-system,'Segoe UI',Helvetica,Arial,sans-serif" font-size="12" fill="#8a8a8a" text-anchor="middle">16px</text><text x="90.0" y="780" font-family="system-ui,-apple-system,'Segoe UI',Helvetica,Arial,sans-serif" font-size="26" font-weight="700" fill="#161616">A · Sourcefold</text><text x="90.0" y="808" font-family="system-ui,-apple-system,'Segoe UI',Helvetica,Arial,sans-serif" font-size="15" font-weight="700" fill="#161616" letter-spacing="1.5">RECOMMENDED</text><text x="90.0" y="842" font-family="system-ui,-apple-system,'Segoe UI',Helvetica,Arial,sans-serif" font-size="19" fill="#555">A folded U turns approved sources into</text><text x="90.0" y="868" font-family="system-ui,-apple-system,'Segoe UI',Helvetica,Arial,sans-serif" font-size="19" fill="#555">understanding.</text><rect x="562.667" y="150" width="474.667" height="774" rx="18" fill="#fff" stroke="#e4e4e0" stroke-width="1"/><g filter="url(#grey)"><svg xmlns="http://www.w3.org/2000/svg" viewBox="0 0 256 256" x="592.667" y="190" width="414.667" height="300" preserveAspectRatio="xMidYMid meet"><title>b-focus-shelf — unapproved UniMind concept</title><path fill="#111111" d="M40 40H216V72H40Z M40 112H128V144H40Z M40 184H128V216H40Z M160 112H216V216H160Z"/></svg>
</g><g filter="url(#grey)"><svg xmlns="http://www.w3.org/2000/svg" viewBox="0 0 940 256" x="592.667" y="514" width="414.667" height="120" preserveAspectRatio="xMidYMid meet"><title>b-focus-shelf — unapproved UniMind concept</title><path fill="#111111" d="M40 40H216V72H40Z M40 112H128V144H40Z M40 184H128V216H40Z M160 112H216V216H160Z"/><g transform="translate(284 67) scale(1.4)"><path transform="translate(0 0)" fill="#111111" fill-rule="evenodd" d="M0 0H12V48C12 64 20 72 34 72S56 64 56 48V0H68V48C68 72 55 84 34 84S0 72 0 48Z"/><path transform="translate(84 0)" fill="#111111" fill-rule="evenodd" d="M0 24H12V30C18 24 25 22 32 22C49 22 58 32 58 50V82H46V50C46 38 41 33 31 33S12 39 12 52V82H0Z"/><path transform="translate(160 0)" fill="#111111" fill-rule="evenodd" d="M0 0H12V12H0Z M0 24H12V82H0Z"/><path transform="translate(192 0)" fill="#111111" fill-rule="evenodd" d="M0 0H14L40 45.033L66 0H80V82H68V14L40 62.497L12 14V82H0Z"/><path transform="translate(290 0)" fill="#111111" fill-rule="evenodd" d="M0 0H12V12H0Z M0 24H12V82H0Z"/><path transform="translate(320 0)" fill="#111111" fill-rule="evenodd" d="M0 24H12V30C18 24 25 22 32 22C49 22 58 32 58 50V82H46V50C46 38 41 33 31 33S12 39 12 52V82H0Z"/><path transform="translate(396 0)" fill="#111111" fill-rule="evenodd" d="M46 0H58V82H46V76C40 82 33 84 26 84C10 84 0 72 0 53S10 22 26 22C34 22 40 25 46 30Z M12 53C12 66 18 73 28 73S46 66 46 53S39 33 28 33S12 40 12 53Z"/></g></svg>
</g><g filter="url(#grey)"><svg xmlns="http://www.w3.org/2000/svg" viewBox="0 0 256 256" x="592.667" y="660" width="64" height="64" preserveAspectRatio="xMidYMid meet"><title>b-focus-shelf — unapproved UniMind concept</title><path fill="#111111" d="M40 40H216V72H40Z M40 112H128V144H40Z M40 184H128V216H40Z M160 112H216V216H160Z"/></svg>
</g><text x="624.667" y="744" font-family="system-ui,-apple-system,'Segoe UI',Helvetica,Arial,sans-serif" font-size="12" fill="#8a8a8a" text-anchor="middle">64px</text><g filter="url(#grey)"><svg xmlns="http://www.w3.org/2000/svg" viewBox="0 0 256 256" x="682.667" y="692" width="32" height="32" preserveAspectRatio="xMidYMid meet"><title>b-focus-shelf — unapproved UniMind concept</title><path fill="#111111" d="M40 40H216V72H40Z M40 112H128V144H40Z M40 184H128V216H40Z M160 112H216V216H160Z"/></svg>
</g><text x="698.667" y="744" font-family="system-ui,-apple-system,'Segoe UI',Helvetica,Arial,sans-serif" font-size="12" fill="#8a8a8a" text-anchor="middle">32px</text><g filter="url(#grey)"><svg xmlns="http://www.w3.org/2000/svg" viewBox="0 0 256 256" x="740.667" y="708" width="16" height="16" preserveAspectRatio="xMidYMid meet"><title>b-focus-shelf — unapproved UniMind concept</title><path fill="#111111" d="M40 40H216V72H40Z M40 112H128V144H40Z M40 184H128V216H40Z M160 112H216V216H160Z"/></svg>
</g><text x="748.667" y="744" font-family="system-ui,-apple-system,'Segoe UI',Helvetica,Arial,sans-serif" font-size="12" fill="#8a8a8a" text-anchor="middle">16px</text><text x="592.6666666666667" y="780" font-family="system-ui,-apple-system,'Segoe UI',Helvetica,Arial,sans-serif" font-size="26" font-weight="700" fill="#161616">B · Focus Shelf</text><text x="592.6666666666667" y="814" font-family="system-ui,-apple-system,'Segoe UI',Helvetica,Arial,sans-serif" font-size="19" fill="#555">Ordered shelves open into one focused study</text><text x="592.6666666666667" y="840" font-family="system-ui,-apple-system,'Segoe UI',Helvetica,Arial,sans-serif" font-size="19" fill="#555">plate.</text><rect x="1065.33" y="150" width="474.667" height="774" rx="18" fill="#fff" stroke="#e4e4e0" stroke-width="1"/><g filter="url(#grey)"><svg xmlns="http://www.w3.org/2000/svg" viewBox="0 0 256 256" x="1095.33" y="190" width="414.667" height="300" preserveAspectRatio="xMidYMid meet"><title>c-common-ground — unapproved UniMind concept</title><path fill="#111111" d="M112 32V72C84 80 68 100 68 128S84 176 112 184V224C58 216 24 180 24 128S58 40 112 32Z M144 32C198 40 232 76 232 128S198 216 144 224V184C172 176 188 156 188 128S172 80 144 72Z M104 104H152V152H104Z"/></svg>
</g><g filter="url(#grey)"><svg xmlns="http://www.w3.org/2000/svg" viewBox="0 0 940 256" x="1095.33" y="514" width="414.667" height="120" preserveAspectRatio="xMidYMid meet"><title>c-common-ground — unapproved UniMind concept</title><path fill="#111111" d="M112 32V72C84 80 68 100 68 128S84 176 112 184V224C58 216 24 180 24 128S58 40 112 32Z M144 32C198 40 232 76 232 128S198 216 144 224V184C172 176 188 156 188 128S172 80 144 72Z M104 104H152V152H104Z"/><g transform="translate(284 67) scale(1.4)"><path transform="translate(0 0)" fill="#111111" fill-rule="evenodd" d="M0 0H12V48C12 64 20 72 34 72S56 64 56 48V0H68V48C68 72 55 84 34 84S0 72 0 48Z"/><path transform="translate(84 0)" fill="#111111" fill-rule="evenodd" d="M0 24H12V30C18 24 25 22 32 22C49 22 58 32 58 50V82H46V50C46 38 41 33 31 33S12 39 12 52V82H0Z"/><path transform="translate(160 0)" fill="#111111" fill-rule="evenodd" d="M0 0H12V12H0Z M0 24H12V82H0Z"/><path transform="translate(192 0)" fill="#111111" fill-rule="evenodd" d="M0 0H14L40 45.033L66 0H80V82H68V14L40 62.497L12 14V82H0Z"/><path transform="translate(290 0)" fill="#111111" fill-rule="evenodd" d="M0 0H12V12H0Z M0 24H12V82H0Z"/><path transform="translate(320 0)" fill="#111111" fill-rule="evenodd" d="M0 24H12V30C18 24 25 22 32 22C49 22 58 32 58 50V82H46V50C46 38 41 33 31 33S12 39 12 52V82H0Z"/><path transform="translate(396 0)" fill="#111111" fill-rule="evenodd" d="M46 0H58V82H46V76C40 82 33 84 26 84C10 84 0 72 0 53S10 22 26 22C34 22 40 25 46 30Z M12 53C12 66 18 73 28 73S46 66 46 53S39 33 28 33S12 40 12 53Z"/></g></svg>
</g><g filter="url(#grey)"><svg xmlns="http://www.w3.org/2000/svg" viewBox="0 0 256 256" x="1095.33" y="660" width="64" height="64" preserveAspectRatio="xMidYMid meet"><title>c-common-ground — unapproved UniMind concept</title><path fill="#111111" d="M112 32V72C84 80 68 100 68 128S84 176 112 184V224C58 216 24 180 24 128S58 40 112 32Z M144 32C198 40 232 76 232 128S198 216 144 224V184C172 176 188 156 188 128S172 80 144 72Z M104 104H152V152H104Z"/></svg>
</g><text x="1127.33" y="744" font-family="system-ui,-apple-system,'Segoe UI',Helvetica,Arial,sans-serif" font-size="12" fill="#8a8a8a" text-anchor="middle">64px</text><g filter="url(#grey)"><svg xmlns="http://www.w3.org/2000/svg" viewBox="0 0 256 256" x="1185.33" y="692" width="32" height="32" preserveAspectRatio="xMidYMid meet"><title>c-common-ground — unapproved UniMind concept</title><path fill="#111111" d="M112 32V72C84 80 68 100 68 128S84 176 112 184V224C58 216 24 180 24 128S58 40 112 32Z M144 32C198 40 232 76 232 128S198 216 144 224V184C172 176 188 156 188 128S172 80 144 72Z M104 104H152V152H104Z"/></svg>
</g><text x="1201.33" y="744" font-family="system-ui,-apple-system,'Segoe UI',Helvetica,Arial,sans-serif" font-size="12" fill="#8a8a8a" text-anchor="middle">32px</text><g filter="url(#grey)"><svg xmlns="http://www.w3.org/2000/svg" viewBox="0 0 256 256" x="1243.33" y="708" width="16" height="16" preserveAspectRatio="xMidYMid meet"><title>c-common-ground — unapproved UniMind concept</title><path fill="#111111" d="M112 32V72C84 80 68 100 68 128S84 176 112 184V224C58 216 24 180 24 128S58 40 112 32Z M144 32C198 40 232 76 232 128S198 216 144 224V184C172 176 188 156 188 128S172 80 144 72Z M104 104H152V152H104Z"/></svg>
</g><text x="1251.33" y="744" font-family="system-ui,-apple-system,'Segoe UI',Helvetica,Arial,sans-serif" font-size="12" fill="#8a8a8a" text-anchor="middle">16px</text><text x="1095.3333333333335" y="780" font-family="system-ui,-apple-system,'Segoe UI',Helvetica,Arial,sans-serif" font-size="26" font-weight="700" fill="#161616">C · Common Ground</text><text x="1095.3333333333335" y="814" font-family="system-ui,-apple-system,'Segoe UI',Helvetica,Arial,sans-serif" font-size="19" fill="#555">Different perspectives meet in one shared</text><text x="1095.3333333333335" y="840" font-family="system-ui,-apple-system,'Segoe UI',Helvetica,Arial,sans-serif" font-size="19" fill="#555">knowledge pool.</text></svg>
